<svg xmlns="http://www.w3.org/2000/svg" viewBox="0 0 113.26 113.26"><defs><style>.cls-1{fill:#fff;}.cls-2{fill:#ff9700;}.cls-3{fill:#f77703;}</style></defs><g id="レイヤー_2" data-name="レイヤー 2"><g id="レイヤー_1-2" data-name="レイヤー 1"><path class="cls-1" d="M89.92,35.28c-.11-.07-.1-.07,0,0S90,35.34,89.92,35.28Z"/><path class="cls-2" d="M113.26,56.63a56.63,56.63,0,1,0-99.7,36.75c7.8-21.71,23.31-51.49,40.63-65.33a5.09,5.09,0,0,1-.64-2.46,5.18,5.18,0,0,1,9.41-3c5.52-2.44,11.12-3,16.62-.85,5.51,2.32,7,9.45,8.11,11.47a10.48,10.48,0,0,0,2.21,2l1.64.94c.27.15.52.29.76.44a1.11,1.11,0,0,0,1.13,1.65c0,.11,0,.21,0,.3s0,.46,0,.69a3.46,3.46,0,0,1-.18,1,3.32,3.32,0,0,1-1.67,1.46l-.13.07c-2.09,1.1-34.41,9-17.92,29.76,4.7,5.9,15.55,15.73,18.13,29.39l0,.12A56.5,56.5,0,0,0,113.26,56.63Z"/><path class="cls-3" d="M89.92,35.28c.1.06.07,0,0,0S89.81,35.21,89.92,35.28Z"/><path class="cls-1" d="M73.54,71.57C57.05,50.84,89.37,42.91,91.46,41.81l.13-.07a3.32,3.32,0,0,0,1.67-1.46,3.46,3.46,0,0,0,.18-1c0-.23,0-.46,0-.69s0-.19,0-.3a1.11,1.11,0,0,1-1.13-1.65c-.24-.15-.49-.29-.76-.44l-1.64-.94c.09.07.12.09,0,0s-.1-.07,0,0a10.48,10.48,0,0,1-2.21-2c-1.16-2-2.6-9.15-8.11-11.47-5.5-2.13-11.1-1.59-16.62.85a5.18,5.18,0,0,0-9.41,3,5.09,5.09,0,0,0,.64,2.46C36.87,41.89,21.36,71.67,13.56,93.38a56.59,56.59,0,0,0,78.14,7.7l0-.12C89.09,87.3,78.24,77.47,73.54,71.57Z"/><path d="M92.33,37.79a1.1,1.1,0,0,1,0-1.16,5.68,5.68,0,0,1,.59.41,1.8,1.8,0,0,1,.54,1.24A1.1,1.1,0,0,1,92.33,37.79Z"/><polygon class="cls-1" points="34.68 83.11 34.68 83.11 34.68 83.11 34.68 83.11"/><path class="cls-1" d="M34.9,82.79h0l-.23.31Z"/><path class="cls-2" d="M58.43,67.82H44.37a2.47,2.47,0,0,0-2.47,2.47V96.56A2.47,2.47,0,0,0,44.37,99H58.43a2.48,2.48,0,0,0,2.48-2.48V70.29A2.48,2.48,0,0,0,58.43,67.82Zm-.49,3.34a.81.81,0,1,1,.8-.81A.81.81,0,0,1,57.94,71.16Z"/><path class="cls-1" d="M31.87,88h0l.23-.32c4.61-6.47,11.75-9.31,16.09-6.33s4.26,10.67-.13,17.3l-.21.32c-2.09,3-3.7,5.31-6.38,6.61l-14-9C27.73,93.71,29.78,91.08,31.87,88Z"/><ellipse cx="80.05" cy="31.94" rx="1.12" ry="0.63"/></g></g></svg>