<svg xmlns="http://www.w3.org/2000/svg" viewBox="0 0 371.88 113.26"><defs><style>.cls-1{fill:#fff;}.cls-2{fill:#ff9700;}.cls-3{fill:#f77703;}.cls-4{fill:#ff1800;}</style></defs><g id="レイヤー_2" data-name="レイヤー 2"><g id="レイヤー_1-2" data-name="レイヤー 1"><path class="cls-1" d="M89.92,35.28c-.11-.07-.1-.07,0,0S90,35.34,89.92,35.28Z"/><path class="cls-2" d="M113.26,56.63a56.63,56.63,0,1,0-99.7,36.75c7.8-21.71,23.31-51.49,40.63-65.33a5.09,5.09,0,0,1-.64-2.46,5.18,5.18,0,0,1,9.41-3c5.52-2.44,11.12-3,16.62-.85,5.51,2.32,7,9.45,8.11,11.47a10.48,10.48,0,0,0,2.21,2l1.64.94c.27.15.52.29.76.44a1.11,1.11,0,0,0,1.13,1.65c0,.11,0,.21,0,.3s0,.46,0,.69a3.46,3.46,0,0,1-.18,1,3.32,3.32,0,0,1-1.67,1.46l-.13.07c-2.09,1.1-34.41,9-17.92,29.76,4.7,5.9,15.55,15.73,18.13,29.39l0,.12A56.5,56.5,0,0,0,113.26,56.63Z"/><path class="cls-3" d="M89.92,35.28c.1.06.07,0,0,0S89.81,35.21,89.92,35.28Z"/><path class="cls-1" d="M73.54,71.57C57.05,50.84,89.37,42.91,91.46,41.81l.13-.07a3.32,3.32,0,0,0,1.67-1.46,3.46,3.46,0,0,0,.18-1c0-.23,0-.46,0-.69s0-.19,0-.3a1.11,1.11,0,0,1-1.13-1.65c-.24-.15-.49-.29-.76-.44l-1.64-.94c.09.07.12.09,0,0s-.1-.07,0,0a10.48,10.48,0,0,1-2.21-2c-1.16-2-2.6-9.15-8.11-11.47-5.5-2.13-11.1-1.59-16.62.85a5.18,5.18,0,0,0-9.41,3,5.09,5.09,0,0,0,.64,2.46C36.87,41.89,21.36,71.67,13.56,93.38a56.59,56.59,0,0,0,78.14,7.7l0-.12C89.09,87.3,78.24,77.47,73.54,71.57Z"/><path d="M92.33,37.79a1.1,1.1,0,0,1,0-1.16,5.68,5.68,0,0,1,.59.41,1.8,1.8,0,0,1,.54,1.24A1.1,1.1,0,0,1,92.33,37.79Z"/><polygon class="cls-1" points="34.68 83.11 34.68 83.11 34.68 83.11 34.68 83.11"/><path class="cls-1" d="M34.9,82.79h0l-.23.31Z"/><path class="cls-2" d="M58.43,67.82H44.37a2.47,2.47,0,0,0-2.47,2.47V96.56A2.47,2.47,0,0,0,44.37,99H58.43a2.48,2.48,0,0,0,2.48-2.48V70.29A2.48,2.48,0,0,0,58.43,67.82Zm-.49,3.34a.81.81,0,1,1,.8-.81A.81.81,0,0,1,57.94,71.16Z"/><path class="cls-1" d="M31.87,88h0l.23-.32c4.61-6.47,11.75-9.31,16.09-6.33s4.26,10.67-.13,17.3l-.21.32c-2.09,3-3.7,5.31-6.38,6.61l-14-9C27.73,93.71,29.78,91.08,31.87,88Z"/><ellipse cx="80.05" cy="31.94" rx="1.12" ry="0.63"/><path class="cls-4" d="M152.54,73.45c-2-2-17.11-23.05-17.11-23.05s2.2,21.11.26,23.05a5.67,5.67,0,0,1-7.61,0c-2-2-1.92-32,0-33.89a5.32,5.32,0,0,1,7.35,0c2,2,17.11,23,17.11,23s-2.28-21-.26-23a5.69,5.69,0,0,1,7.61,0c1.88,1.88,2,31.91,0,33.89A5.29,5.29,0,0,1,152.54,73.45Z"/><path class="cls-4" d="M164,61.11c0-9.38,6.58-13.29,13.42-13.29s13.37,3.91,13.37,13.29-6.58,13.28-13.37,13.28S164,70.44,164,61.11Zm13.42-8c-3.61,0-6.19.14-6.19,8.13s1.89,7.82,6.19,7.82c4,0,6.15,0,6.15-8S181.44,53.11,177.44,53.11Z"/><path class="cls-4" d="M200.7,48.72c2,2,.13,4.52.13,4.52.69-1.55,2.41-5.42,9.46-5.42h2.5c2,0,2,7.14,0,7.14H210c-3.35,0-9.41-.23-8.69,7.44,0,0,1.93,9.12,0,11.05a4.89,4.89,0,0,1-6.92,0c-1.92-1.92-2-22.72,0-24.73S198.71,46.73,200.7,48.72Z"/><path class="cls-4" d="M229.24,53V66c0,2.45,1.47,2.79,3.44,2.79h2.07c1.95,0,2,5.42,0,5.42s-2.71.21-4,.21c-5.21,0-8.52-2.36-8.52-7.22V53h-4.56c-2,0-2-4.26,0-4.26h4.56s-2-4.91,0-6.92a4.87,4.87,0,0,1,7.05,0c2,2,0,6.92,0,6.92h5.51c2,0,2,4.26,0,4.26Z"/><path class="cls-4" d="M246.85,39.56c2,2,0,12,0,12a10,10,0,0,1,8.34-3.74c4.69,0,9.44,3.82,9.81,10s2,13.65,0,15.61a4.82,4.82,0,0,1-6.92,0c-1.95-2,.27-12.2,0-14.58s-.35-5.42-5.64-5.42c-3.57,0-5.07,1.49-5.59,5.42s2,12.62,0,14.58a4.86,4.86,0,0,1-6.92,0c-1.9-1.9-2-31.88,0-33.89A4.74,4.74,0,0,1,246.85,39.56Z"/><path class="cls-2" d="M271.12,39.56c2-2,17.67,0,17.67,0,8.92.81,12.6,3.79,12.6,11.36,0,6-4.17,11-12.6,11h-9.93s2,9.5,0,11.48a5.85,5.85,0,0,1-7.74,0C269.19,71.53,269.1,41.58,271.12,39.56Zm7.74,16.26h9.07c2.88,0,5.5-1.55,5.5-5.08,0-3.13-2.28-5-5.5-5h-9.07C276.86,45.71,276.9,55.82,278.86,55.82Z"/><path class="cls-2" d="M300.57,61.11c0-9.38,6.58-13.29,13.42-13.29s13.37,3.91,13.37,13.29S320.78,74.39,314,74.39,300.57,70.44,300.57,61.11Zm13.42-8c-3.62,0-6.2,0-6.2,8.13,0,7.82,1.9,7.82,6.2,7.82,4,0,6.14,0,6.14-8S318,53.11,314,53.11Z"/><path class="cls-2" d="M340,39.56c2,2,1.92,32,0,33.89a5,5,0,0,1-7.05,0c-2-2-2-31.89,0-33.89A4.93,4.93,0,0,1,340,39.56Z"/><path class="cls-2" d="M351.58,62.57c0,6.49,2.28,6.66,6.49,6.66s3.71-1.17,5.72-3.18a4.88,4.88,0,0,1,7,0c.24,1.38-.9,2.67-2.28,4.17a13.77,13.77,0,0,1-10.49,4.17c-7.82,0-13.5-4.68-13.5-13.28,0-9.46,6.75-13.29,13.16-13.29a12.94,12.94,0,0,1,10.75,5.07c2.53,3.36,4.33,8.22,2.88,9.68S351.58,62.57,351.58,62.57Zm12.73-4.39a6.74,6.74,0,0,0-6.45-5.2c-4.52,0-6.2,3.2-6.2,5.2S364.31,60.17,364.31,58.18Z"/></g></g></svg>