<svg xmlns="http://www.w3.org/2000/svg" viewBox="0 0 195.34 145.73"><defs><style>.cls-1{fill:#fff;}.cls-2{fill:#5abae0;}.cls-3{fill:#f77703;}.cls-4{fill:#2e89bc;}.cls-5{fill:#282828;}</style></defs><g id="レイヤー_2" data-name="レイヤー 2"><g id="レイヤー_1-2" data-name="レイヤー 1"><path class="cls-1" d="M128.66,35.28c-.11-.07-.11-.07,0,0S128.75,35.34,128.66,35.28Z"/><path class="cls-2" d="M152,56.63A56.64,56.64,0,1,0,52.29,93.38c7.8-21.71,23.32-51.49,40.64-65.33a5.1,5.1,0,0,1-.65-2.46,5.19,5.19,0,0,1,9.42-3c5.52-2.44,11.11-3,16.61-.85,5.52,2.32,7,9.45,8.12,11.47a10.45,10.45,0,0,0,2.2,2l1.64.94.77.44a1.1,1.1,0,0,0,1.13,1.65c0,.11,0,.21,0,.3s0,.46,0,.69a3.16,3.16,0,0,1-.18,1,3.24,3.24,0,0,1-1.67,1.46l-.13.07c-2.08,1.1-34.41,9-17.91,29.76C117,77.47,127.82,87.3,130.41,101c0,0,0,.08,0,.12A56.51,56.51,0,0,0,152,56.63Z"/><path class="cls-3" d="M128.66,35.28c.09.06.07,0,0,0S128.55,35.21,128.66,35.28Z"/><path class="cls-1" d="M112.28,71.57c-16.5-20.73,15.83-28.66,17.91-29.76l.13-.07A3.24,3.24,0,0,0,132,40.28a3.16,3.16,0,0,0,.18-1c0-.23,0-.46,0-.69s0-.19,0-.3A1.1,1.1,0,0,1,131,36.63l-.77-.44-1.64-.94c.1.07.12.09,0,0s-.11-.07,0,0a10.45,10.45,0,0,1-2.2-2c-1.17-2-2.6-9.15-8.12-11.47-5.5-2.13-11.09-1.59-16.61.85a5.19,5.19,0,0,0-9.42,3,5.1,5.1,0,0,0,.65,2.46C75.61,41.89,60.09,71.67,52.29,93.38a56.59,56.59,0,0,0,78.14,7.7s0-.08,0-.12C127.82,87.3,117,77.47,112.28,71.57Z"/><path d="M131.06,37.79a1.1,1.1,0,0,1,0-1.16,5.56,5.56,0,0,1,.58.41,1.85,1.85,0,0,1,.55,1.24A1.11,1.11,0,0,1,131.06,37.79Z"/><polygon class="cls-1" points="73.42 83.11 73.42 83.11 73.42 83.11 73.42 83.11"/><path class="cls-1" d="M73.64,82.79h0l-.22.31Z"/><path class="cls-4" d="M97.17,67.82H83.1a2.48,2.48,0,0,0-2.47,2.47V96.56A2.48,2.48,0,0,0,83.1,99H97.17a2.48,2.48,0,0,0,2.47-2.48V70.29A2.48,2.48,0,0,0,97.17,67.82Zm-.5,3.34a.81.81,0,1,1,.8-.81A.8.8,0,0,1,96.67,71.16Z"/><path class="cls-1" d="M70.61,88h0l.22-.32c4.62-6.47,11.76-9.31,16.1-6.33s4.25,10.67-.13,17.3l-.22.32c-2.09,3-3.69,5.31-6.37,6.61l-14-9C66.46,93.71,68.52,91.08,70.61,88Z"/><ellipse cx="118.79" cy="31.94" rx="1.12" ry="0.63"/><path class="cls-5" d="M10.55,137.78l.22,1.24H11l.29-1.24,5-18h5.44l-7.92,25.55H8L0,119.82H5.44Z"/><path class="cls-5" d="M34.75,128.36l.22-.07v-1.17H40v18.25H35v-1.72l-.22-.07a5.49,5.49,0,0,1-4.49,2.15c-4.27,0-6.9-4.19-6.9-9.49s2.74-9.48,7.23-9.48A5.64,5.64,0,0,1,34.75,128.36ZM35,139.09v-6.9a5.8,5.8,0,0,0-3.76-1.27c-1.94,0-2.78,2.22-2.78,5.32s.84,5.37,2.78,5.37A3.86,3.86,0,0,0,35,139.09Z"/><path class="cls-5" d="M45.19,127.12h5.07v2.08l.22.07a6.09,6.09,0,0,1,5.11-2.51c3.1,0,5.69,1.86,5.69,6.93v11.68H56.21V134c0-2.66-1.32-3.06-2.85-3.06a3.73,3.73,0,0,0-3.1,1.57v12.88H45.19Z"/><path class="cls-5" d="M68.84,119.56c2,0,2.81,1.17,2.81,2.34s-.77,2.26-2.81,2.26S66,123,66,121.9,66.9,119.56,68.84,119.56Zm-2.52,7.56h5.07v18.25H66.32Z"/><path class="cls-4" d="M83.65,145.7c-4.92,0-7-2.16-7-6.43V118.73h5.08v20c0,1.68.76,2.45,2.19,2.56Z"/><path class="cls-2" d="M94.38,145.68c-4.92,0-7-2.15-7-6.42V118.71h5.08v20c0,1.68.76,2.45,2.19,2.56Z"/><path class="cls-5" d="M108.29,128.34l.22-.07V127.1h5.07v18.25h-5.07v-1.71l-.22-.08a5.47,5.47,0,0,1-4.49,2.16c-4.27,0-6.9-4.2-6.9-9.49s2.74-9.49,7.23-9.49A5.62,5.62,0,0,1,108.29,128.34Zm.22,10.73v-6.89a5.73,5.73,0,0,0-3.76-1.28c-1.93,0-2.77,2.22-2.77,5.33s.84,5.36,2.77,5.36A3.85,3.85,0,0,0,108.51,139.07Z"/><path class="cls-5" d="M125.3,119.8h6.82c5.66,0,9,3.14,9,6.94A5.72,5.72,0,0,1,138,132l0,.22a6.24,6.24,0,0,1,4.34,6.17c0,3.83-3.32,6.93-8.94,6.93h-8.1Zm5.07,4.16v6.5h2.37a3.09,3.09,0,0,0,3.29-3.39c0-1.65-1.31-3.11-3.58-3.11Zm0,10.37v6.9h3.36c2.12,0,3.54-1.24,3.54-3.18,0-2.19-1.24-3.72-3.25-3.72Z"/><path class="cls-5" d="M161.14,135.46v2.19h-11c.19,2.7,1.14,3.87,4.38,3.94a9.7,9.7,0,0,0,4.6-1.09l.84,3.68a10.24,10.24,0,0,1-5.44,1.54c-6.31,0-9.49-3.58-9.49-9.46,0-5,2.56-9.45,8.18-9.52C157.86,126.74,161.14,129.8,161.14,135.46Zm-10.95-1.13H156c-.15-2.45-1.17-3.43-2.59-3.43C151.29,130.9,150.45,132.14,150.19,134.33Z"/><path class="cls-5" d="M175.05,128.34l.22-.07V127.1h5.07v18.25h-5.07v-1.71l-.22-.08a5.48,5.48,0,0,1-4.49,2.16c-4.27,0-6.9-4.2-6.9-9.49s2.74-9.49,7.23-9.49A5.64,5.64,0,0,1,175.05,128.34Zm.22,10.73v-6.89a5.75,5.75,0,0,0-3.76-1.28c-1.94,0-2.78,2.22-2.78,5.33s.84,5.36,2.78,5.36A3.86,3.86,0,0,0,175.27,139.07Z"/><path class="cls-5" d="M185.49,127.1h5.07v1.83l.22.07a5.27,5.27,0,0,1,4.12-2.26h.44v4.67h-.73a5.94,5.94,0,0,0-4.05,1.6v12.38h-5.07Z"/></g></g></svg>