<svg xmlns="http://www.w3.org/2000/svg" viewBox="0 0 375.8 52.63"><defs><style>.cls-1{fill:#5abae0;}.cls-2{fill:#f77703;}.cls-3{fill:#fff;}.cls-4{fill:#2e89bc;}.cls-5{fill:#282828;}</style></defs><g id="レイヤー_2" data-name="レイヤー 2"><g id="レイヤー_1-2" data-name="レイヤー 1"><path class="cls-1" d="M52.63,26.32A26.32,26.32,0,1,0,6.3,43.39C9.92,33.3,17.13,19.47,25.18,13a2.49,2.49,0,0,1-.3-1.15,2.42,2.42,0,0,1,4.38-1.4A9.8,9.8,0,0,1,37,10.1c2.56,1.07,3.23,4.39,3.77,5.33a5.13,5.13,0,0,0,1,.95l.76.44.36.2a.52.52,0,0,0,.53.77v.46a1.56,1.56,0,0,1-.09.47,1.51,1.51,0,0,1-.77.68l-.06,0c-1,.51-16,4.19-8.33,13.83C36.36,36,41.4,40.57,42.6,46.91V47A26.26,26.26,0,0,0,52.63,26.32Z"/><path class="cls-2" d="M41.78,16.39s0,0,0,0S41.73,16.36,41.78,16.39Z"/><path class="cls-3" d="M34.17,33.26c-7.66-9.64,7.36-13.32,8.33-13.83l.06,0a1.51,1.51,0,0,0,.77-.68,1.56,1.56,0,0,0,.09-.47v-.46a.52.52,0,0,1-.53-.77l-.36-.2-.76-.44s.06,0,0,0,0,0,0,0a5.13,5.13,0,0,1-1-.95c-.54-.94-1.21-4.26-3.77-5.33a9.8,9.8,0,0,0-7.72.39,2.42,2.42,0,0,0-4.38,1.4,2.49,2.49,0,0,0,.3,1.15C17.13,19.47,9.92,33.3,6.3,43.39A26.29,26.29,0,0,0,42.61,47v-.06C41.4,40.57,36.36,36,34.17,33.26Z"/><path d="M42.9,17.56a.52.52,0,0,1,0-.54l.27.19a.87.87,0,0,1,.26.58A.52.52,0,0,1,42.9,17.56Z"/><polygon class="cls-3" points="16.12 38.62 16.12 38.62 16.12 38.62 16.12 38.62"/><path class="cls-3" d="M16.22,38.47h0l-.1.15Z"/><path class="cls-4" d="M27.15,31.51H20.62a1.15,1.15,0,0,0-1.15,1.15V44.87A1.14,1.14,0,0,0,20.62,46h6.53a1.14,1.14,0,0,0,1.15-1.15V32.66A1.15,1.15,0,0,0,27.15,31.51Zm-.23,1.56a.38.38,0,1,1,.38-.38A.38.38,0,0,1,26.92,33.07Z"/><path class="cls-3" d="M14.81,40.91h0l.11-.15c2.14-3,5.46-4.32,7.47-2.94s2,5-.06,8a1.3,1.3,0,0,1-.1.15,8,8,0,0,1-3,3.07l-6.5-4.16C12.89,43.54,13.84,42.32,14.81,40.91Z"/><ellipse cx="37.2" cy="14.84" rx="0.52" ry="0.29"/><path class="cls-5" d="M82.14,36.15l.35,2h.35l.47-2,8-28.54H100L87.36,48.21H78L65.38,7.61H74Z"/><path class="cls-5" d="M120.6,21.18l.35-.11V19.21H129v29H121V45.48l-.35-.11a8.7,8.7,0,0,1-7.14,3.42c-6.78,0-11-6.67-11-15.08S106.85,18.63,114,18.63A8.92,8.92,0,0,1,120.6,21.18Zm.35,17v-11a9.23,9.23,0,0,0-6-2c-3.07,0-4.41,3.54-4.41,8.47s1.34,8.53,4.41,8.53A6.13,6.13,0,0,0,121,38.23Z"/><path class="cls-5" d="M137.19,19.21h8.06v3.31l.35.11a9.68,9.68,0,0,1,8.12-4c4.93,0,9,3,9,11V48.21H154.7V30.11c0-4.23-2.09-4.87-4.52-4.87a5.92,5.92,0,0,0-4.93,2.5V48.21h-8.06Z"/><path class="cls-5" d="M174.77,7.21c3.25,0,4.47,1.85,4.47,3.71,0,1.68-1.22,3.59-4.47,3.59-3.07,0-4.47-1.91-4.47-3.59C170.3,9.06,171.7,7.21,174.77,7.21Zm-4,12h8.06v29h-8.06Z"/><path class="cls-4" d="M198.32,48.73c-7.83,0-11.08-3.42-11.08-10.21V5.87h8.06V37.71c0,2.67,1.22,3.89,3.48,4.06Z"/><path class="cls-1" d="M215.37,48.73c-7.83,0-11.08-3.42-11.08-10.21V5.87h8.06V37.71c0,2.67,1.22,3.89,3.48,4.06Z"/><path class="cls-5" d="M237.47,21.18l.35-.11V19.21h8.06v29h-8.06V45.48l-.35-.11a8.7,8.7,0,0,1-7.14,3.42c-6.78,0-11-6.67-11-15.08s4.35-15.08,11.49-15.08A8.92,8.92,0,0,1,237.47,21.18Zm.35,17v-11a9.23,9.23,0,0,0-6-2c-3.07,0-4.41,3.54-4.41,8.47s1.34,8.53,4.41,8.53A6.13,6.13,0,0,0,237.82,38.23Z"/><path class="cls-5" d="M264.49,7.61h10.85c9,0,14.27,5,14.27,11a9.11,9.11,0,0,1-5,8.41l.06.35a9.93,9.93,0,0,1,6.9,9.8c0,6.09-5.28,11-14.21,11H264.49Zm8.07,6.61V24.55h3.77c3.3,0,5.22-2.15,5.22-5.4,0-2.61-2.09-4.93-5.69-4.93Zm0,16.47v11h5.33c3.37,0,5.63-2,5.63-5,0-3.48-2-5.92-5.16-5.92Z"/><path class="cls-5" d="M321.45,32.49V36H304c.29,4.29,1.8,6.15,7,6.27a15.47,15.47,0,0,0,7.31-1.74l1.33,5.85A16.19,16.19,0,0,1,311,48.79c-10,0-15.08-5.68-15.08-15,0-8,4.06-15,13-15.14C316.23,18.63,321.45,23.5,321.45,32.49Zm-17.4-1.8h9.28c-.23-3.88-1.86-5.45-4.12-5.45C305.79,25.24,304.46,27.22,304.05,30.69Z"/><path class="cls-5" d="M343.55,21.18l.35-.11V19.21H352v29H343.9V45.48l-.35-.11a8.7,8.7,0,0,1-7.14,3.42c-6.78,0-11-6.67-11-15.08s4.35-15.08,11.49-15.08A8.92,8.92,0,0,1,343.55,21.18Zm.35,17v-11a9.23,9.23,0,0,0-6-2c-3.07,0-4.41,3.54-4.41,8.47s1.34,8.53,4.41,8.53A6.13,6.13,0,0,0,343.9,38.23Z"/><path class="cls-5" d="M360.14,19.21h8.06v2.9l.35.12a8.39,8.39,0,0,1,6.55-3.6h.7v7.42h-1.16a9.41,9.41,0,0,0-6.44,2.56V48.27h-8.06Z"/></g></g></svg>